<svg xmlns="http://www.w3.org/2000/svg" viewBox="0 0 32 32"><circle fill="none" cx="16" cy="16" r="16"/><path fill="#FFF" d="M11 18.9l.1.4.1-.4 2.3-8.3h2.8L12.5 22H9.7L6 10.6h2.8l2.2 8.3zm14.8-.9c0 1.4-.4 2.4-1.2 3.1-.7.7-1.8 1.1-3.2 1.1-1.4 0-2.5-.4-3.4-1.3-.9-.9-1.3-2-1.3-3.4v-2.4c0-1.4.4-2.5 1.3-3.4.8-.9 1.9-1.3 3.3-1.3s2.5.4 3.3 1.1c.8.7 1.2 1.8 1.3 3.1h-2.6c0-.7-.2-1.3-.5-1.6-.3-.4-.8-.5-1.5-.5-.6 0-1.1.2-1.4.7-.3.5-.5 1.1-.5 1.9v2.4c0 .8.2 1.4.6 1.9.4.5.9.7 1.5.7s1.1-.2 1.4-.5c.3-.3.4-.9.5-1.6h2.4z"/></svg>